<svg width="19" height="19" viewBox="0 0 19 19" fill="none" xmlns="http://www.w3.org/2000/svg">
    <path d="M10.5412 0.601582L12.7687 5.21696C12.9317 5.55342 13.2468 5.78334 13.6086 5.83025L18.0529 6.39271H18.0527C18.3325 6.43097 18.587 6.57968 18.7627 6.80745C18.9384 7.03522 19.0218 7.32441 18.9951 7.61416C18.9685 7.90393 18.834 8.17175 18.6199 8.36145L15.1518 11.4075C15.0013 11.5381 14.8882 11.7082 14.8237 11.8999C14.7594 12.0914 14.7465 12.2974 14.7864 12.4959L15.8197 17.6258C15.8776 17.9121 15.8251 18.2101 15.6735 18.4571C15.5219 18.7041 15.283 18.8805 15.0074 18.9489C14.732 19.0174 14.4414 18.9727 14.1974 18.824L10.0421 16.3123C9.87624 16.2137 9.68832 16.1617 9.49681 16.1617C9.3053 16.1617 9.11738 16.2137 8.95154 16.3123L4.80179 18.8436H4.8016C4.55759 18.9923 4.26714 19.0372 3.99156 18.9687C3.71617 18.9003 3.47731 18.7239 3.32569 18.4769C3.17392 18.2299 3.12162 17.9317 3.17925 17.6454L4.20722 12.4954C4.24716 12.2969 4.23422 12.0909 4.16994 11.8994C4.10547 11.7077 3.9923 11.5376 3.84186 11.4069L0.379056 8.3974C0.164713 8.2071 0.0304337 7.93832 0.00457014 7.64775C-0.0212958 7.35719 0.0633377 7.06761 0.240599 6.84004C0.417856 6.61266 0.673853 6.46513 0.954379 6.42863L5.79683 5.84086C6.18254 5.79377 6.5148 5.53892 6.66943 5.17147L8.57799 0.671258V0.671454C8.68887 0.411894 8.89047 0.20511 9.14288 0.0925173C9.39507 -0.0200959 9.67943 -0.0302963 9.93865 0.0640699C10.1979 0.158241 10.413 0.350113 10.5412 0.601019L10.5412 0.601582Z"
          fill="#F6BE05"/>
</svg>
